<svg xmlns="http://www.w3.org/2000/svg" xmlns:xlink="http://www.w3.org/1999/xlink" width="500" zoomAndPan="magnify" viewBox="0 0 375 374.999991" height="500" preserveAspectRatio="xMidYMid meet" version="1.0"><defs><g/><clipPath id="228474b895"><path d="M 96 150 L 137 150 L 137 211 L 96 211 Z M 96 150 " clip-rule="nonzero"/></clipPath><clipPath id="f381972661"><path d="M 37.503906 188.664062 L 97.429688 128.734375 L 155.238281 186.542969 L 95.308594 246.46875 Z M 37.503906 188.664062 " clip-rule="nonzero"/></clipPath><clipPath id="84f351c9cf"><path d="M 37.503906 188.664062 L 97.429688 128.734375 L 155.238281 186.542969 L 95.308594 246.46875 Z M 37.503906 188.664062 " clip-rule="nonzero"/></clipPath><clipPath id="3eb1e970f8"><path d="M 37.503906 188.664062 L 97.429688 128.734375 L 155.238281 186.542969 L 95.308594 246.46875 Z M 37.503906 188.664062 " clip-rule="nonzero"/></clipPath><clipPath id="4fd8d46a0f"><path d="M 37 169 L 111 169 L 111 224 L 37 224 Z M 37 169 " clip-rule="nonzero"/></clipPath><clipPath id="976f95a251"><path d="M 37.503906 188.664062 L 97.429688 128.734375 L 155.238281 186.542969 L 95.308594 246.46875 Z M 37.503906 188.664062 " clip-rule="nonzero"/></clipPath><clipPath id="f69690fabb"><path d="M 37.503906 188.664062 L 97.429688 128.734375 L 155.238281 186.542969 L 95.308594 246.46875 Z M 37.503906 188.664062 " clip-rule="nonzero"/></clipPath><clipPath id="8117af4ff0"><path d="M 37.503906 188.664062 L 97.429688 128.734375 L 155.238281 186.542969 L 95.308594 246.46875 Z M 37.503906 188.664062 " clip-rule="nonzero"/></clipPath></defs><rect x="-37.5" width="450" fill="#ffffff" y="-37.499999" height="449.999989" fill-opacity="1"/><rect x="-37.5" width="450" fill="#ffffff" y="-37.499999" height="449.999989" fill-opacity="1"/><g clip-path="url(#228474b895)"><g clip-path="url(#f381972661)"><g clip-path="url(#84f351c9cf)"><g clip-path="url(#3eb1e970f8)"><path fill="#80cc28" d="M 136.113281 184.949219 C 133.238281 164.609375 99.171875 150.996094 99.171875 150.996094 C 99.171875 150.996094 103.140625 169.1875 98.441406 180.085938 C 95.296875 187.363281 91.300781 210.675781 119.097656 210.003906 C 119.394531 209.996094 119.703125 209.980469 120.011719 209.957031 C 123.347656 199.519531 126.632812 176.234375 101.363281 153.640625 C 101.363281 153.640625 133.367188 176.148438 121.660156 209.777344 C 129.132812 208.671875 138.679688 203.117188 136.113281 184.949219 " fill-opacity="1" fill-rule="nonzero"/></g></g></g></g><g clip-path="url(#4fd8d46a0f)"><g clip-path="url(#976f95a251)"><g clip-path="url(#f69690fabb)"><g clip-path="url(#8117af4ff0)"><path fill="#27963c" d="M 93.085938 189.976562 C 80.867188 184.484375 64.03125 181.796875 41.855469 188.085938 C 41.855469 188.085938 68.421875 177.054688 93.539062 187.515625 C 93.953125 185.679688 94.480469 184.089844 94.988281 182.914062 C 96.441406 179.546875 97.066406 175.480469 97.234375 171.46875 C 73.425781 162.589844 37.546875 188.636719 37.546875 188.636719 C 37.546875 188.636719 59.742188 196.777344 68.265625 209.25 C 73.589844 217.046875 93.488281 235.222656 110.785156 212.6875 C 93.839844 211.144531 91.800781 198.84375 93.085938 189.976562 " fill-opacity="1" fill-rule="nonzero"/></g></g></g></g><g fill="#3c4937" fill-opacity="1"><g transform="translate(134.971134, 208.559966)"><g><path d="M 1.640625 -3.59375 L 10.5 -23.609375 C 10.8125 -24.316406 11.238281 -24.863281 11.78125 -25.25 C 12.332031 -25.632812 12.992188 -25.828125 13.765625 -25.828125 L 14.09375 -25.828125 C 14.863281 -25.828125 15.515625 -25.632812 16.046875 -25.25 C 16.585938 -24.863281 17.015625 -24.316406 17.328125 -23.609375 L 26.1875 -3.59375 C 26.382812 -3.0625 26.484375 -2.6875 26.484375 -2.46875 C 26.484375 -1.71875 26.226562 -1.082031 25.71875 -0.5625 C 25.207031 -0.0390625 24.578125 0.21875 23.828125 0.21875 C 23.171875 0.21875 22.625 0.046875 22.1875 -0.296875 C 21.757812 -0.648438 21.410156 -1.117188 21.140625 -1.703125 L 19.4375 -5.703125 L 8.25 -5.703125 L 6.46875 -1.53125 C 6.226562 -0.96875 5.882812 -0.535156 5.4375 -0.234375 C 4.988281 0.0664062 4.472656 0.21875 3.890625 0.21875 C 3.160156 0.21875 2.546875 -0.0351562 2.046875 -0.546875 C 1.554688 -1.054688 1.3125 -1.671875 1.3125 -2.390625 C 1.3125 -2.585938 1.335938 -2.789062 1.390625 -3 C 1.453125 -3.207031 1.535156 -3.40625 1.640625 -3.59375 Z M 10.3125 -10.640625 L 17.359375 -10.640625 L 13.84375 -19.03125 Z M 10.3125 -10.640625 "/></g></g></g><g fill="#3c4937" fill-opacity="1"><g transform="translate(159.018109, 208.559966)"><g><path d="M 1.59375 -10.75 C 1.59375 -12.207031 1.832031 -13.5 2.3125 -14.625 C 2.800781 -15.75 3.445312 -16.695312 4.25 -17.46875 C 5.050781 -18.25 5.972656 -18.835938 7.015625 -19.234375 C 8.054688 -19.628906 9.132812 -19.828125 10.25 -19.828125 C 11.75 -19.828125 12.984375 -19.546875 13.953125 -18.984375 C 14.921875 -18.429688 15.78125 -17.742188 16.53125 -16.921875 L 16.53125 -16.96875 C 16.53125 -17.71875 16.796875 -18.359375 17.328125 -18.890625 C 17.859375 -19.421875 18.515625 -19.6875 19.296875 -19.6875 C 20.066406 -19.6875 20.71875 -19.421875 21.25 -18.890625 C 21.78125 -18.359375 22.046875 -17.703125 22.046875 -16.921875 L 22.046875 -4.390625 C 22.046875 -2.554688 21.816406 -0.988281 21.359375 0.3125 C 20.898438 1.625 20.21875 2.691406 19.3125 3.515625 C 18.40625 4.347656 17.269531 4.953125 15.90625 5.328125 C 14.550781 5.703125 12.976562 5.890625 11.1875 5.890625 C 9.882812 5.890625 8.660156 5.785156 7.515625 5.578125 C 6.378906 5.367188 5.226562 5.023438 4.0625 4.546875 C 3.582031 4.347656 3.203125 4.066406 2.921875 3.703125 C 2.640625 3.335938 2.5 2.898438 2.5 2.390625 C 2.5 1.765625 2.71875 1.234375 3.15625 0.796875 C 3.59375 0.359375 4.128906 0.140625 4.765625 0.140625 C 5.046875 0.140625 5.347656 0.203125 5.671875 0.328125 C 6.460938 0.640625 7.296875 0.910156 8.171875 1.140625 C 9.046875 1.367188 10.003906 1.484375 11.046875 1.484375 C 12.929688 1.484375 14.328125 1.035156 15.234375 0.140625 C 16.148438 -0.753906 16.609375 -2.070312 16.609375 -3.8125 L 16.609375 -4.765625 C 15.773438 -3.742188 14.875 -2.957031 13.90625 -2.40625 C 12.9375 -1.863281 11.71875 -1.59375 10.25 -1.59375 C 9.101562 -1.59375 8.007812 -1.789062 6.96875 -2.1875 C 5.925781 -2.59375 5.003906 -3.179688 4.203125 -3.953125 C 3.410156 -4.734375 2.773438 -5.6875 2.296875 -6.8125 C 1.828125 -7.9375 1.59375 -9.226562 1.59375 -10.6875 Z M 11.84375 -6.171875 C 12.519531 -6.171875 13.148438 -6.28125 13.734375 -6.5 C 14.316406 -6.71875 14.816406 -7.023438 15.234375 -7.421875 C 15.660156 -7.828125 15.992188 -8.304688 16.234375 -8.859375 C 16.484375 -9.421875 16.609375 -10.03125 16.609375 -10.6875 L 16.609375 -10.75 C 16.609375 -11.40625 16.484375 -12.007812 16.234375 -12.5625 C 15.992188 -13.125 15.660156 -13.601562 15.234375 -14 C 14.816406 -14.40625 14.316406 -14.710938 13.734375 -14.921875 C 13.148438 -15.140625 12.519531 -15.25 11.84375 -15.25 C 11.164062 -15.25 10.539062 -15.140625 9.96875 -14.921875 C 9.40625 -14.710938 8.910156 -14.40625 8.484375 -14 C 8.054688 -13.601562 7.722656 -13.125 7.484375 -12.5625 C 7.242188 -12.007812 7.125 -11.40625 7.125 -10.75 L 7.125 -10.6875 C 7.125 -9.300781 7.5625 -8.203125 8.4375 -7.390625 C 9.320312 -6.578125 10.457031 -6.171875 11.84375 -6.171875 Z M 11.84375 -6.171875 "/></g></g></g><g fill="#3c4937" fill-opacity="1"><g transform="translate(179.759422, 208.559966)"><g><path d="M 2.46875 -2.546875 L 2.46875 -16.921875 C 2.46875 -17.703125 2.734375 -18.359375 3.265625 -18.890625 C 3.796875 -19.421875 4.453125 -19.6875 5.234375 -19.6875 C 6.003906 -19.6875 6.65625 -19.421875 7.1875 -18.890625 C 7.71875 -18.359375 7.984375 -17.703125 7.984375 -16.921875 L 7.984375 -16.0625 C 8.398438 -17 8.921875 -17.835938 9.546875 -18.578125 C 10.179688 -19.316406 10.910156 -19.6875 11.734375 -19.6875 C 12.578125 -19.6875 13.234375 -19.429688 13.703125 -18.921875 C 14.179688 -18.410156 14.421875 -17.769531 14.421875 -17 C 14.421875 -16.269531 14.210938 -15.691406 13.796875 -15.265625 C 13.390625 -14.847656 12.90625 -14.566406 12.34375 -14.421875 C 10.945312 -14.054688 9.867188 -13.332031 9.109375 -12.25 C 8.359375 -11.175781 7.984375 -9.660156 7.984375 -7.703125 L 7.984375 -2.546875 C 7.984375 -1.765625 7.71875 -1.109375 7.1875 -0.578125 C 6.65625 -0.046875 6.003906 0.21875 5.234375 0.21875 C 4.453125 0.21875 3.796875 -0.046875 3.265625 -0.578125 C 2.734375 -1.109375 2.46875 -1.765625 2.46875 -2.546875 Z M 2.46875 -2.546875 "/></g></g></g><g fill="#3c4937" fill-opacity="1"><g transform="translate(191.164986, 208.559966)"><g><path d="M 5.484375 -19.6875 C 6.253906 -19.6875 6.90625 -19.421875 7.4375 -18.890625 C 7.976562 -18.359375 8.25 -17.703125 8.25 -16.921875 L 8.25 -2.546875 C 8.25 -1.765625 7.976562 -1.109375 7.4375 -0.578125 C 6.90625 -0.046875 6.253906 0.21875 5.484375 0.21875 C 4.710938 0.21875 4.054688 -0.046875 3.515625 -0.578125 C 2.984375 -1.109375 2.71875 -1.765625 2.71875 -2.546875 L 2.71875 -16.921875 C 2.71875 -17.703125 2.984375 -18.359375 3.515625 -18.890625 C 4.054688 -19.421875 4.710938 -19.6875 5.484375 -19.6875 Z M 5.484375 -26.703125 C 6.359375 -26.703125 7.09375 -26.472656 7.6875 -26.015625 C 8.28125 -25.554688 8.578125 -24.925781 8.578125 -24.125 L 8.578125 -24.046875 C 8.578125 -23.242188 8.28125 -22.609375 7.6875 -22.140625 C 7.09375 -21.671875 6.359375 -21.4375 5.484375 -21.4375 C 4.609375 -21.4375 3.875 -21.671875 3.28125 -22.140625 C 2.6875 -22.609375 2.390625 -23.242188 2.390625 -24.046875 L 2.390625 -24.125 C 2.390625 -24.925781 2.6875 -25.554688 3.28125 -26.015625 C 3.875 -26.472656 4.609375 -26.703125 5.484375 -26.703125 Z M 5.484375 -26.703125 "/></g></g></g><g fill="#3c4937" fill-opacity="1"><g transform="translate(198.356746, 208.559966)"><g><path d="M 3.3125 -22.84375 C 3.3125 -23.625 3.582031 -24.285156 4.125 -24.828125 C 4.664062 -25.367188 5.328125 -25.640625 6.109375 -25.640625 C 6.878906 -25.640625 7.535156 -25.367188 8.078125 -24.828125 C 8.628906 -24.285156 8.90625 -23.625 8.90625 -22.84375 L 8.90625 -2.578125 C 8.90625 -1.804688 8.628906 -1.144531 8.078125 -0.59375 C 7.535156 -0.0507812 6.878906 0.21875 6.109375 0.21875 C 5.328125 0.21875 4.664062 -0.0507812 4.125 -0.59375 C 3.582031 -1.144531 3.3125 -1.804688 3.3125 -2.578125 Z M 3.3125 -22.84375 "/></g></g></g><g fill="#3c4937" fill-opacity="1"><g transform="translate(206.783592, 208.559966)"><g><path d="M 5.234375 -19.6875 C 6.003906 -19.6875 6.65625 -19.421875 7.1875 -18.890625 C 7.71875 -18.359375 7.984375 -17.703125 7.984375 -16.921875 L 7.984375 -16.703125 C 8.617188 -17.535156 9.382812 -18.265625 10.28125 -18.890625 C 11.175781 -19.515625 12.316406 -19.828125 13.703125 -19.828125 C 15.828125 -19.828125 17.457031 -19.191406 18.59375 -17.921875 C 19.738281 -16.648438 20.3125 -14.878906 20.3125 -12.609375 L 20.3125 -2.546875 C 20.3125 -1.765625 20.039062 -1.109375 19.5 -0.578125 C 18.96875 -0.046875 18.316406 0.21875 17.546875 0.21875 C 16.773438 0.21875 16.117188 -0.046875 15.578125 -0.578125 C 15.046875 -1.109375 14.78125 -1.765625 14.78125 -2.546875 L 14.78125 -10.859375 C 14.78125 -13.503906 13.664062 -14.828125 11.4375 -14.828125 C 10.351562 -14.828125 9.503906 -14.492188 8.890625 -13.828125 C 8.285156 -13.160156 7.984375 -12.171875 7.984375 -10.859375 L 7.984375 -2.546875 C 7.984375 -1.765625 7.71875 -1.109375 7.1875 -0.578125 C 6.65625 -0.046875 6.003906 0.21875 5.234375 0.21875 C 4.453125 0.21875 3.796875 -0.046875 3.265625 -0.578125 C 2.734375 -1.109375 2.46875 -1.765625 2.46875 -2.546875 L 2.46875 -16.921875 C 2.46875 -17.703125 2.734375 -18.359375 3.265625 -18.890625 C 3.796875 -19.421875 4.453125 -19.6875 5.234375 -19.6875 Z M 5.234375 -19.6875 "/></g></g></g><g fill="#3c4937" fill-opacity="1"><g transform="translate(225.635962, 208.559966)"><g><path d="M 3.09375 -5.921875 C 3.476562 -5.921875 3.835938 -5.820312 4.171875 -5.625 C 5.140625 -5.09375 6.066406 -4.671875 6.953125 -4.359375 C 7.835938 -4.046875 8.664062 -3.890625 9.4375 -3.890625 C 10.238281 -3.890625 10.828125 -4.019531 11.203125 -4.28125 C 11.578125 -4.550781 11.765625 -4.90625 11.765625 -5.34375 L 11.765625 -5.40625 C 11.765625 -5.695312 11.65625 -5.953125 11.4375 -6.171875 C 11.21875 -6.390625 10.921875 -6.578125 10.546875 -6.734375 C 10.171875 -6.890625 9.738281 -7.039062 9.25 -7.1875 C 8.769531 -7.332031 8.265625 -7.492188 7.734375 -7.671875 C 7.054688 -7.859375 6.375 -8.09375 5.6875 -8.375 C 5 -8.65625 4.375 -9.019531 3.8125 -9.46875 C 3.257812 -9.914062 2.804688 -10.460938 2.453125 -11.109375 C 2.097656 -11.765625 1.921875 -12.566406 1.921875 -13.515625 L 1.921875 -13.59375 C 1.921875 -14.582031 2.109375 -15.457031 2.484375 -16.21875 C 2.859375 -16.976562 3.367188 -17.625 4.015625 -18.15625 C 4.660156 -18.695312 5.414062 -19.097656 6.28125 -19.359375 C 7.15625 -19.628906 8.078125 -19.765625 9.046875 -19.765625 C 10.066406 -19.765625 11.082031 -19.625 12.09375 -19.34375 C 13.113281 -19.0625 14.109375 -18.703125 15.078125 -18.265625 C 15.953125 -17.878906 16.390625 -17.191406 16.390625 -16.203125 C 16.390625 -15.566406 16.175781 -15.039062 15.75 -14.625 C 15.320312 -14.21875 14.796875 -14.015625 14.171875 -14.015625 C 13.804688 -14.015625 13.46875 -14.101562 13.15625 -14.28125 C 12.375 -14.71875 11.617188 -15.03125 10.890625 -15.21875 C 10.171875 -15.414062 9.519531 -15.515625 8.9375 -15.515625 C 8.257812 -15.515625 7.75 -15.382812 7.40625 -15.125 C 7.070312 -14.875 6.90625 -14.554688 6.90625 -14.171875 L 6.90625 -14.09375 C 6.90625 -13.851562 7.015625 -13.625 7.234375 -13.40625 C 7.453125 -13.1875 7.738281 -12.984375 8.09375 -12.796875 C 8.457031 -12.617188 8.875 -12.445312 9.34375 -12.28125 C 9.820312 -12.113281 10.328125 -11.941406 10.859375 -11.765625 C 11.535156 -11.546875 12.222656 -11.285156 12.921875 -10.984375 C 13.628906 -10.679688 14.257812 -10.3125 14.8125 -9.875 C 15.375 -9.445312 15.835938 -8.914062 16.203125 -8.28125 C 16.566406 -7.65625 16.75 -6.894531 16.75 -6 L 16.75 -5.921875 C 16.75 -4.828125 16.5625 -3.882812 16.1875 -3.09375 C 15.8125 -2.3125 15.285156 -1.664062 14.609375 -1.15625 C 13.929688 -0.65625 13.140625 -0.273438 12.234375 -0.015625 C 11.335938 0.234375 10.359375 0.359375 9.296875 0.359375 C 8.066406 0.359375 6.828125 0.191406 5.578125 -0.140625 C 4.328125 -0.484375 3.125 -1.054688 1.96875 -1.859375 C 1.675781 -2.046875 1.425781 -2.296875 1.21875 -2.609375 C 1.007812 -2.929688 0.90625 -3.304688 0.90625 -3.734375 C 0.90625 -4.367188 1.109375 -4.890625 1.515625 -5.296875 C 1.929688 -5.710938 2.457031 -5.921875 3.09375 -5.921875 Z M 3.09375 -5.921875 "/></g></g></g><g fill="#3c4937" fill-opacity="1"><g transform="translate(240.0929, 208.559966)"><g><path d="M 5.484375 -19.6875 C 6.253906 -19.6875 6.90625 -19.421875 7.4375 -18.890625 C 7.976562 -18.359375 8.25 -17.703125 8.25 -16.921875 L 8.25 -2.546875 C 8.25 -1.765625 7.976562 -1.109375 7.4375 -0.578125 C 6.90625 -0.046875 6.253906 0.21875 5.484375 0.21875 C 4.710938 0.21875 4.054688 -0.046875 3.515625 -0.578125 C 2.984375 -1.109375 2.71875 -1.765625 2.71875 -2.546875 L 2.71875 -16.921875 C 2.71875 -17.703125 2.984375 -18.359375 3.515625 -18.890625 C 4.054688 -19.421875 4.710938 -19.6875 5.484375 -19.6875 Z M 5.484375 -26.703125 C 6.359375 -26.703125 7.09375 -26.472656 7.6875 -26.015625 C 8.28125 -25.554688 8.578125 -24.925781 8.578125 -24.125 L 8.578125 -24.046875 C 8.578125 -23.242188 8.28125 -22.609375 7.6875 -22.140625 C 7.09375 -21.671875 6.359375 -21.4375 5.484375 -21.4375 C 4.609375 -21.4375 3.875 -21.671875 3.28125 -22.140625 C 2.6875 -22.609375 2.390625 -23.242188 2.390625 -24.046875 L 2.390625 -24.125 C 2.390625 -24.925781 2.6875 -25.554688 3.28125 -26.015625 C 3.875 -26.472656 4.609375 -26.703125 5.484375 -26.703125 Z M 5.484375 -26.703125 "/></g></g></g><g fill="#3c4937" fill-opacity="1"><g transform="translate(247.28466, 208.559966)"><g><path d="M 1.59375 -10.75 C 1.59375 -12.207031 1.832031 -13.5 2.3125 -14.625 C 2.800781 -15.75 3.445312 -16.695312 4.25 -17.46875 C 5.050781 -18.25 5.972656 -18.835938 7.015625 -19.234375 C 8.054688 -19.628906 9.132812 -19.828125 10.25 -19.828125 C 11.75 -19.828125 12.984375 -19.546875 13.953125 -18.984375 C 14.921875 -18.429688 15.78125 -17.742188 16.53125 -16.921875 L 16.53125 -16.96875 C 16.53125 -17.71875 16.796875 -18.359375 17.328125 -18.890625 C 17.859375 -19.421875 18.515625 -19.6875 19.296875 -19.6875 C 20.066406 -19.6875 20.71875 -19.421875 21.25 -18.890625 C 21.78125 -18.359375 22.046875 -17.703125 22.046875 -16.921875 L 22.046875 -4.390625 C 22.046875 -2.554688 21.816406 -0.988281 21.359375 0.3125 C 20.898438 1.625 20.21875 2.691406 19.3125 3.515625 C 18.40625 4.347656 17.269531 4.953125 15.90625 5.328125 C 14.550781 5.703125 12.976562 5.890625 11.1875 5.890625 C 9.882812 5.890625 8.660156 5.785156 7.515625 5.578125 C 6.378906 5.367188 5.226562 5.023438 4.0625 4.546875 C 3.582031 4.347656 3.203125 4.066406 2.921875 3.703125 C 2.640625 3.335938 2.5 2.898438 2.5 2.390625 C 2.5 1.765625 2.71875 1.234375 3.15625 0.796875 C 3.59375 0.359375 4.128906 0.140625 4.765625 0.140625 C 5.046875 0.140625 5.347656 0.203125 5.671875 0.328125 C 6.460938 0.640625 7.296875 0.910156 8.171875 1.140625 C 9.046875 1.367188 10.003906 1.484375 11.046875 1.484375 C 12.929688 1.484375 14.328125 1.035156 15.234375 0.140625 C 16.148438 -0.753906 16.609375 -2.070312 16.609375 -3.8125 L 16.609375 -4.765625 C 15.773438 -3.742188 14.875 -2.957031 13.90625 -2.40625 C 12.9375 -1.863281 11.71875 -1.59375 10.25 -1.59375 C 9.101562 -1.59375 8.007812 -1.789062 6.96875 -2.1875 C 5.925781 -2.59375 5.003906 -3.179688 4.203125 -3.953125 C 3.410156 -4.734375 2.773438 -5.6875 2.296875 -6.8125 C 1.828125 -7.9375 1.59375 -9.226562 1.59375 -10.6875 Z M 11.84375 -6.171875 C 12.519531 -6.171875 13.148438 -6.28125 13.734375 -6.5 C 14.316406 -6.71875 14.816406 -7.023438 15.234375 -7.421875 C 15.660156 -7.828125 15.992188 -8.304688 16.234375 -8.859375 C 16.484375 -9.421875 16.609375 -10.03125 16.609375 -10.6875 L 16.609375 -10.75 C 16.609375 -11.40625 16.484375 -12.007812 16.234375 -12.5625 C 15.992188 -13.125 15.660156 -13.601562 15.234375 -14 C 14.816406 -14.40625 14.316406 -14.710938 13.734375 -14.921875 C 13.148438 -15.140625 12.519531 -15.25 11.84375 -15.25 C 11.164062 -15.25 10.539062 -15.140625 9.96875 -14.921875 C 9.40625 -14.710938 8.910156 -14.40625 8.484375 -14 C 8.054688 -13.601562 7.722656 -13.125 7.484375 -12.5625 C 7.242188 -12.007812 7.125 -11.40625 7.125 -10.75 L 7.125 -10.6875 C 7.125 -9.300781 7.5625 -8.203125 8.4375 -7.390625 C 9.320312 -6.578125 10.457031 -6.171875 11.84375 -6.171875 Z M 11.84375 -6.171875 "/></g></g></g><g fill="#3c4937" fill-opacity="1"><g transform="translate(268.025971, 208.559966)"><g><path d="M 5.234375 -26.734375 C 6.003906 -26.734375 6.65625 -26.46875 7.1875 -25.9375 C 7.71875 -25.40625 7.984375 -24.75 7.984375 -23.96875 L 7.984375 -16.703125 C 8.617188 -17.535156 9.382812 -18.265625 10.28125 -18.890625 C 11.175781 -19.515625 12.316406 -19.828125 13.703125 -19.828125 C 15.828125 -19.828125 17.457031 -19.191406 18.59375 -17.921875 C 19.738281 -16.648438 20.3125 -14.878906 20.3125 -12.609375 L 20.3125 -2.546875 C 20.3125 -1.765625 20.039062 -1.109375 19.5 -0.578125 C 18.96875 -0.046875 18.316406 0.21875 17.546875 0.21875 C 16.773438 0.21875 16.117188 -0.046875 15.578125 -0.578125 C 15.046875 -1.109375 14.78125 -1.765625 14.78125 -2.546875 L 14.78125 -10.859375 C 14.78125 -13.503906 13.664062 -14.828125 11.4375 -14.828125 C 10.351562 -14.828125 9.503906 -14.492188 8.890625 -13.828125 C 8.285156 -13.160156 7.984375 -12.171875 7.984375 -10.859375 L 7.984375 -2.546875 C 7.984375 -1.765625 7.71875 -1.109375 7.1875 -0.578125 C 6.65625 -0.046875 6.003906 0.21875 5.234375 0.21875 C 4.453125 0.21875 3.796875 -0.046875 3.265625 -0.578125 C 2.734375 -1.109375 2.46875 -1.765625 2.46875 -2.546875 L 2.46875 -23.96875 C 2.46875 -24.75 2.734375 -25.40625 3.265625 -25.9375 C 3.796875 -26.46875 4.453125 -26.734375 5.234375 -26.734375 Z M 5.234375 -26.734375 "/></g></g></g><g fill="#3c4937" fill-opacity="1"><g transform="translate(286.878341, 208.559966)"><g><path d="M 2.359375 -19.46875 L 3.375 -19.46875 L 3.375 -21.90625 C 3.375 -22.675781 3.640625 -23.328125 4.171875 -23.859375 C 4.710938 -24.398438 5.367188 -24.671875 6.140625 -24.671875 C 6.910156 -24.671875 7.5625 -24.398438 8.09375 -23.859375 C 8.632812 -23.328125 8.90625 -22.675781 8.90625 -21.90625 L 8.90625 -19.46875 L 11.328125 -19.46875 C 11.984375 -19.46875 12.539062 -19.238281 13 -18.78125 C 13.46875 -18.320312 13.703125 -17.765625 13.703125 -17.109375 C 13.703125 -16.453125 13.46875 -15.894531 13 -15.4375 C 12.539062 -14.976562 11.984375 -14.75 11.328125 -14.75 L 8.90625 -14.75 L 8.90625 -6.4375 C 8.90625 -5.175781 9.5 -4.546875 10.6875 -4.546875 C 10.78125 -4.546875 10.898438 -4.550781 11.046875 -4.5625 C 11.191406 -4.570312 11.285156 -4.578125 11.328125 -4.578125 C 11.960938 -4.578125 12.503906 -4.351562 12.953125 -3.90625 C 13.398438 -3.457031 13.625 -2.914062 13.625 -2.28125 C 13.625 -1.707031 13.460938 -1.25 13.140625 -0.90625 C 12.828125 -0.570312 12.4375 -0.3125 11.96875 -0.125 C 11.5 0.0507812 11.003906 0.171875 10.484375 0.234375 C 9.960938 0.296875 9.484375 0.328125 9.046875 0.328125 C 8.222656 0.328125 7.457031 0.234375 6.75 0.046875 C 6.050781 -0.128906 5.453125 -0.445312 4.953125 -0.90625 C 4.460938 -1.363281 4.078125 -1.96875 3.796875 -2.71875 C 3.515625 -3.46875 3.375 -4.398438 3.375 -5.515625 L 3.375 -14.75 L 2.359375 -14.75 C 1.703125 -14.75 1.144531 -14.976562 0.6875 -15.4375 C 0.226562 -15.894531 0 -16.453125 0 -17.109375 C 0 -17.765625 0.226562 -18.320312 0.6875 -18.78125 C 1.144531 -19.238281 1.703125 -19.46875 2.359375 -19.46875 Z M 2.359375 -19.46875 "/></g></g></g><g fill="#26973c" fill-opacity="1"><g transform="translate(134.060928, 224.903702)"><g><path d="M 5.125 -5.34375 L 3.125 -5.34375 L 3.125 0 L 2.0625 0 L 2.0625 -5.34375 L 0.078125 -5.34375 L 0.078125 -6.296875 L 5.125 -6.296875 Z M 5.125 -5.34375 "/></g></g></g><g fill="#26973c" fill-opacity="1"><g transform="translate(139.685964, 224.903702)"><g><path d="M 1.265625 -5.40625 C 1.910156 -6.019531 2.703125 -6.328125 3.640625 -6.328125 C 4.585938 -6.328125 5.378906 -6.019531 6.015625 -5.40625 C 6.660156 -4.800781 6.984375 -4.046875 6.984375 -3.140625 C 6.984375 -2.242188 6.660156 -1.488281 6.015625 -0.875 C 5.378906 -0.257812 4.585938 0.046875 3.640625 0.046875 C 2.703125 0.046875 1.910156 -0.257812 1.265625 -0.875 C 0.628906 -1.488281 0.3125 -2.242188 0.3125 -3.140625 C 0.3125 -4.046875 0.628906 -4.800781 1.265625 -5.40625 Z M 3.65625 -5.375 C 3.03125 -5.375 2.492188 -5.160156 2.046875 -4.734375 C 1.609375 -4.304688 1.390625 -3.78125 1.390625 -3.15625 C 1.390625 -2.53125 1.613281 -2 2.0625 -1.5625 C 2.507812 -1.125 3.039062 -0.90625 3.65625 -0.90625 C 4.269531 -0.90625 4.796875 -1.125 5.234375 -1.5625 C 5.671875 -2 5.890625 -2.53125 5.890625 -3.15625 C 5.890625 -3.78125 5.671875 -4.304688 5.234375 -4.734375 C 4.796875 -5.160156 4.269531 -5.375 3.65625 -5.375 Z M 3.65625 -5.375 "/></g></g></g><g fill="#26973c" fill-opacity="1"><g transform="translate(147.390014, 224.903702)"><g><path d="M 7.484375 0 L 6.5 0 L 6.5 -4.703125 L 4.515625 -0.65625 L 3.8125 -0.65625 L 1.828125 -4.703125 L 1.828125 0 L 0.828125 0 L 0.828125 -6.296875 L 2.09375 -6.296875 L 4.171875 -2.109375 L 6.234375 -6.296875 L 7.484375 -6.296875 Z M 7.484375 0 "/></g></g></g><g fill="#26973c" fill-opacity="1"><g transform="translate(156.129078, 224.903702)"><g><path d="M 4.890625 -1.421875 L 1.71875 -1.421875 L 1.109375 0 L 0.015625 0 L 2.796875 -6.296875 L 3.875 -6.296875 L 6.640625 0 L 5.5 0 Z M 4.484375 -2.359375 L 3.296875 -5.171875 L 2.109375 -2.359375 Z M 4.484375 -2.359375 "/></g></g></g><g fill="#26973c" fill-opacity="1"><g transform="translate(163.18513, 224.903702)"><g><path d="M 5.125 -5.34375 L 3.125 -5.34375 L 3.125 0 L 2.0625 0 L 2.0625 -5.34375 L 0.078125 -5.34375 L 0.078125 -6.296875 L 5.125 -6.296875 Z M 5.125 -5.34375 "/></g></g></g><g fill="#26973c" fill-opacity="1"><g transform="translate(168.810167, 224.903702)"><g><path d="M 1.265625 -5.40625 C 1.910156 -6.019531 2.703125 -6.328125 3.640625 -6.328125 C 4.585938 -6.328125 5.378906 -6.019531 6.015625 -5.40625 C 6.660156 -4.800781 6.984375 -4.046875 6.984375 -3.140625 C 6.984375 -2.242188 6.660156 -1.488281 6.015625 -0.875 C 5.378906 -0.257812 4.585938 0.046875 3.640625 0.046875 C 2.703125 0.046875 1.910156 -0.257812 1.265625 -0.875 C 0.628906 -1.488281 0.3125 -2.242188 0.3125 -3.140625 C 0.3125 -4.046875 0.628906 -4.800781 1.265625 -5.40625 Z M 3.65625 -5.375 C 3.03125 -5.375 2.492188 -5.160156 2.046875 -4.734375 C 1.609375 -4.304688 1.390625 -3.78125 1.390625 -3.15625 C 1.390625 -2.53125 1.613281 -2 2.0625 -1.5625 C 2.507812 -1.125 3.039062 -0.90625 3.65625 -0.90625 C 4.269531 -0.90625 4.796875 -1.125 5.234375 -1.5625 C 5.671875 -2 5.890625 -2.53125 5.890625 -3.15625 C 5.890625 -3.78125 5.671875 -4.304688 5.234375 -4.734375 C 4.796875 -5.160156 4.269531 -5.375 3.65625 -5.375 Z M 3.65625 -5.375 "/></g></g></g><g fill="#26973c" fill-opacity="1"><g transform="translate(176.514217, 224.903702)"><g/></g></g><g fill="#26973c" fill-opacity="1"><g transform="translate(179.250239, 224.903702)"><g><path d="M 0.828125 -6.296875 L 3.40625 -6.296875 C 4.351562 -6.296875 5.132812 -6 5.75 -5.40625 C 6.363281 -4.8125 6.671875 -4.054688 6.671875 -3.140625 C 6.671875 -2.234375 6.359375 -1.484375 5.734375 -0.890625 C 5.117188 -0.296875 4.335938 0 3.390625 0 L 0.828125 0 Z M 1.890625 -5.34375 L 1.890625 -0.953125 L 3.4375 -0.953125 C 4.050781 -0.953125 4.5625 -1.15625 4.96875 -1.5625 C 5.382812 -1.976562 5.59375 -2.503906 5.59375 -3.140625 C 5.59375 -3.773438 5.378906 -4.300781 4.953125 -4.71875 C 4.535156 -5.132812 4.015625 -5.34375 3.390625 -5.34375 Z M 1.890625 -5.34375 "/></g></g></g><g fill="#26973c" fill-opacity="1"><g transform="translate(186.639288, 224.903702)"><g><path d="M 1.890625 0 L 0.828125 0 L 0.828125 -6.296875 L 1.890625 -6.296875 Z M 1.890625 0 "/></g></g></g><g fill="#26973c" fill-opacity="1"><g transform="translate(189.771307, 224.903702)"><g><path d="M 2.890625 -6.34375 C 3.710938 -6.34375 4.453125 -6.128906 5.109375 -5.703125 L 4.65625 -4.765625 C 4.019531 -5.148438 3.40625 -5.34375 2.8125 -5.34375 C 2.5 -5.34375 2.25 -5.285156 2.0625 -5.171875 C 1.882812 -5.054688 1.796875 -4.894531 1.796875 -4.6875 C 1.796875 -4.476562 1.878906 -4.300781 2.046875 -4.15625 C 2.210938 -4.007812 2.421875 -3.898438 2.671875 -3.828125 C 2.921875 -3.753906 3.191406 -3.664062 3.484375 -3.5625 C 3.785156 -3.457031 4.0625 -3.347656 4.3125 -3.234375 C 4.5625 -3.117188 4.769531 -2.9375 4.9375 -2.6875 C 5.101562 -2.4375 5.1875 -2.132812 5.1875 -1.78125 C 5.1875 -1.226562 4.960938 -0.785156 4.515625 -0.453125 C 4.078125 -0.128906 3.507812 0.03125 2.8125 0.03125 C 2.332031 0.03125 1.863281 -0.0546875 1.40625 -0.234375 C 0.957031 -0.410156 0.566406 -0.65625 0.234375 -0.96875 L 0.6875 -1.875 C 1.007812 -1.582031 1.359375 -1.359375 1.734375 -1.203125 C 2.117188 -1.046875 2.484375 -0.96875 2.828125 -0.96875 C 3.203125 -0.96875 3.488281 -1.035156 3.6875 -1.171875 C 3.894531 -1.304688 4 -1.492188 4 -1.734375 C 4 -1.941406 3.914062 -2.117188 3.75 -2.265625 C 3.582031 -2.421875 3.375 -2.53125 3.125 -2.59375 C 2.875 -2.664062 2.597656 -2.75 2.296875 -2.84375 C 2.003906 -2.945312 1.734375 -3.050781 1.484375 -3.15625 C 1.234375 -3.269531 1.023438 -3.445312 0.859375 -3.6875 C 0.691406 -3.9375 0.609375 -4.238281 0.609375 -4.59375 C 0.609375 -5.125 0.816406 -5.546875 1.234375 -5.859375 C 1.648438 -6.179688 2.203125 -6.34375 2.890625 -6.34375 Z M 2.890625 -6.34375 "/></g></g></g><g fill="#26973c" fill-opacity="1"><g transform="translate(195.783345, 224.903702)"><g><path d="M 5.328125 -5.34375 L 1.890625 -5.34375 L 1.890625 -3.640625 L 4.96875 -3.640625 L 4.96875 -2.6875 L 1.890625 -2.6875 L 1.890625 -0.953125 L 5.4375 -0.953125 L 5.4375 0 L 0.828125 0 L 0.828125 -6.296875 L 5.328125 -6.296875 Z M 5.328125 -5.34375 "/></g></g></g><g fill="#26973c" fill-opacity="1"><g transform="translate(202.101388, 224.903702)"><g><path d="M 4.890625 -1.421875 L 1.71875 -1.421875 L 1.109375 0 L 0.015625 0 L 2.796875 -6.296875 L 3.875 -6.296875 L 6.640625 0 L 5.5 0 Z M 4.484375 -2.359375 L 3.296875 -5.171875 L 2.109375 -2.359375 Z M 4.484375 -2.359375 "/></g></g></g><g fill="#26973c" fill-opacity="1"><g transform="translate(209.157437, 224.903702)"><g><path d="M 2.890625 -6.34375 C 3.710938 -6.34375 4.453125 -6.128906 5.109375 -5.703125 L 4.65625 -4.765625 C 4.019531 -5.148438 3.40625 -5.34375 2.8125 -5.34375 C 2.5 -5.34375 2.25 -5.285156 2.0625 -5.171875 C 1.882812 -5.054688 1.796875 -4.894531 1.796875 -4.6875 C 1.796875 -4.476562 1.878906 -4.300781 2.046875 -4.15625 C 2.210938 -4.007812 2.421875 -3.898438 2.671875 -3.828125 C 2.921875 -3.753906 3.191406 -3.664062 3.484375 -3.5625 C 3.785156 -3.457031 4.0625 -3.347656 4.3125 -3.234375 C 4.5625 -3.117188 4.769531 -2.9375 4.9375 -2.6875 C 5.101562 -2.4375 5.1875 -2.132812 5.1875 -1.78125 C 5.1875 -1.226562 4.960938 -0.785156 4.515625 -0.453125 C 4.078125 -0.128906 3.507812 0.03125 2.8125 0.03125 C 2.332031 0.03125 1.863281 -0.0546875 1.40625 -0.234375 C 0.957031 -0.410156 0.566406 -0.65625 0.234375 -0.96875 L 0.6875 -1.875 C 1.007812 -1.582031 1.359375 -1.359375 1.734375 -1.203125 C 2.117188 -1.046875 2.484375 -0.96875 2.828125 -0.96875 C 3.203125 -0.96875 3.488281 -1.035156 3.6875 -1.171875 C 3.894531 -1.304688 4 -1.492188 4 -1.734375 C 4 -1.941406 3.914062 -2.117188 3.75 -2.265625 C 3.582031 -2.421875 3.375 -2.53125 3.125 -2.59375 C 2.875 -2.664062 2.597656 -2.75 2.296875 -2.84375 C 2.003906 -2.945312 1.734375 -3.050781 1.484375 -3.15625 C 1.234375 -3.269531 1.023438 -3.445312 0.859375 -3.6875 C 0.691406 -3.9375 0.609375 -4.238281 0.609375 -4.59375 C 0.609375 -5.125 0.816406 -5.546875 1.234375 -5.859375 C 1.648438 -6.179688 2.203125 -6.34375 2.890625 -6.34375 Z M 2.890625 -6.34375 "/></g></g></g><g fill="#26973c" fill-opacity="1"><g transform="translate(215.169475, 224.903702)"><g><path d="M 5.328125 -5.34375 L 1.890625 -5.34375 L 1.890625 -3.640625 L 4.96875 -3.640625 L 4.96875 -2.6875 L 1.890625 -2.6875 L 1.890625 -0.953125 L 5.4375 -0.953125 L 5.4375 0 L 0.828125 0 L 0.828125 -6.296875 L 5.328125 -6.296875 Z M 5.328125 -5.34375 "/></g></g></g><g fill="#26973c" fill-opacity="1"><g transform="translate(221.487518, 224.903702)"><g/></g></g><g fill="#26973c" fill-opacity="1"><g transform="translate(224.223537, 224.903702)"><g><path d="M 0.828125 -6.296875 L 3.40625 -6.296875 C 4.351562 -6.296875 5.132812 -6 5.75 -5.40625 C 6.363281 -4.8125 6.671875 -4.054688 6.671875 -3.140625 C 6.671875 -2.234375 6.359375 -1.484375 5.734375 -0.890625 C 5.117188 -0.296875 4.335938 0 3.390625 0 L 0.828125 0 Z M 1.890625 -5.34375 L 1.890625 -0.953125 L 3.4375 -0.953125 C 4.050781 -0.953125 4.5625 -1.15625 4.96875 -1.5625 C 5.382812 -1.976562 5.59375 -2.503906 5.59375 -3.140625 C 5.59375 -3.773438 5.378906 -4.300781 4.953125 -4.71875 C 4.535156 -5.132812 4.015625 -5.34375 3.390625 -5.34375 Z M 1.890625 -5.34375 "/></g></g></g><g fill="#26973c" fill-opacity="1"><g transform="translate(231.612591, 224.903702)"><g><path d="M 5.328125 -5.34375 L 1.890625 -5.34375 L 1.890625 -3.640625 L 4.96875 -3.640625 L 4.96875 -2.6875 L 1.890625 -2.6875 L 1.890625 -0.953125 L 5.4375 -0.953125 L 5.4375 0 L 0.828125 0 L 0.828125 -6.296875 L 5.328125 -6.296875 Z M 5.328125 -5.34375 "/></g></g></g><g fill="#26973c" fill-opacity="1"><g transform="translate(237.930634, 224.903702)"><g><path d="M 5.125 -5.34375 L 3.125 -5.34375 L 3.125 0 L 2.0625 0 L 2.0625 -5.34375 L 0.078125 -5.34375 L 0.078125 -6.296875 L 5.125 -6.296875 Z M 5.125 -5.34375 "/></g></g></g><g fill="#26973c" fill-opacity="1"><g transform="translate(243.555668, 224.903702)"><g><path d="M 5.328125 -5.34375 L 1.890625 -5.34375 L 1.890625 -3.640625 L 4.96875 -3.640625 L 4.96875 -2.6875 L 1.890625 -2.6875 L 1.890625 -0.953125 L 5.4375 -0.953125 L 5.4375 0 L 0.828125 0 L 0.828125 -6.296875 L 5.328125 -6.296875 Z M 5.328125 -5.34375 "/></g></g></g><g fill="#26973c" fill-opacity="1"><g transform="translate(249.87371, 224.903702)"><g><path d="M 3.625 -6.328125 C 4.0625 -6.328125 4.488281 -6.238281 4.90625 -6.0625 C 5.332031 -5.894531 5.703125 -5.660156 6.015625 -5.359375 L 5.390625 -4.578125 C 5.160156 -4.828125 4.890625 -5.019531 4.578125 -5.15625 C 4.265625 -5.300781 3.953125 -5.375 3.640625 -5.375 C 3.003906 -5.375 2.46875 -5.160156 2.03125 -4.734375 C 1.601562 -4.304688 1.390625 -3.785156 1.390625 -3.171875 C 1.390625 -2.546875 1.601562 -2.015625 2.03125 -1.578125 C 2.46875 -1.148438 3.003906 -0.9375 3.640625 -0.9375 C 4.285156 -0.9375 4.867188 -1.1875 5.390625 -1.6875 L 6.015625 -0.984375 C 5.691406 -0.671875 5.3125 -0.421875 4.875 -0.234375 C 4.445312 -0.046875 4.015625 0.046875 3.578125 0.046875 C 2.660156 0.046875 1.882812 -0.257812 1.25 -0.875 C 0.625 -1.488281 0.3125 -2.25 0.3125 -3.15625 C 0.3125 -4.050781 0.628906 -4.800781 1.265625 -5.40625 C 1.898438 -6.019531 2.6875 -6.328125 3.625 -6.328125 Z M 3.625 -6.328125 "/></g></g></g><g fill="#26973c" fill-opacity="1"><g transform="translate(256.560756, 224.903702)"><g><path d="M 5.125 -5.34375 L 3.125 -5.34375 L 3.125 0 L 2.0625 0 L 2.0625 -5.34375 L 0.078125 -5.34375 L 0.078125 -6.296875 L 5.125 -6.296875 Z M 5.125 -5.34375 "/></g></g></g><g fill="#26973c" fill-opacity="1"><g transform="translate(262.18579, 224.903702)"><g><path d="M 1.890625 0 L 0.828125 0 L 0.828125 -6.296875 L 1.890625 -6.296875 Z M 1.890625 0 "/></g></g></g><g fill="#26973c" fill-opacity="1"><g transform="translate(265.317809, 224.903702)"><g><path d="M 1.265625 -5.40625 C 1.910156 -6.019531 2.703125 -6.328125 3.640625 -6.328125 C 4.585938 -6.328125 5.378906 -6.019531 6.015625 -5.40625 C 6.660156 -4.800781 6.984375 -4.046875 6.984375 -3.140625 C 6.984375 -2.242188 6.660156 -1.488281 6.015625 -0.875 C 5.378906 -0.257812 4.585938 0.046875 3.640625 0.046875 C 2.703125 0.046875 1.910156 -0.257812 1.265625 -0.875 C 0.628906 -1.488281 0.3125 -2.242188 0.3125 -3.140625 C 0.3125 -4.046875 0.628906 -4.800781 1.265625 -5.40625 Z M 3.65625 -5.375 C 3.03125 -5.375 2.492188 -5.160156 2.046875 -4.734375 C 1.609375 -4.304688 1.390625 -3.78125 1.390625 -3.15625 C 1.390625 -2.53125 1.613281 -2 2.0625 -1.5625 C 2.507812 -1.125 3.039062 -0.90625 3.65625 -0.90625 C 4.269531 -0.90625 4.796875 -1.125 5.234375 -1.5625 C 5.671875 -2 5.890625 -2.53125 5.890625 -3.15625 C 5.890625 -3.78125 5.671875 -4.304688 5.234375 -4.734375 C 4.796875 -5.160156 4.269531 -5.375 3.65625 -5.375 Z M 3.65625 -5.375 "/></g></g></g><g fill="#26973c" fill-opacity="1"><g transform="translate(273.021856, 224.903702)"><g><path d="M 6.296875 0 L 5.25 0 L 1.890625 -4.515625 L 1.890625 0 L 0.828125 0 L 0.828125 -6.296875 L 1.875 -6.296875 L 5.25 -1.765625 L 5.25 -6.296875 L 6.296875 -6.296875 Z M 6.296875 0 "/></g></g></g><g fill="#26973c" fill-opacity="1"><g transform="translate(280.563913, 224.903702)"><g/></g></g><g fill="#26973c" fill-opacity="1"><g transform="translate(283.299932, 224.903702)"><g><path d="M 4.890625 -1.421875 L 1.71875 -1.421875 L 1.109375 0 L 0.015625 0 L 2.796875 -6.296875 L 3.875 -6.296875 L 6.640625 0 L 5.5 0 Z M 4.484375 -2.359375 L 3.296875 -5.171875 L 2.109375 -2.359375 Z M 4.484375 -2.359375 "/></g></g></g><g fill="#26973c" fill-opacity="1"><g transform="translate(290.355981, 224.903702)"><g><path d="M 0.828125 -6.296875 L 3.34375 -6.296875 C 4.132812 -6.296875 4.742188 -6.109375 5.171875 -5.734375 C 5.609375 -5.359375 5.828125 -4.832031 5.828125 -4.15625 C 5.828125 -3.4375 5.609375 -2.878906 5.171875 -2.484375 C 4.742188 -2.097656 4.132812 -1.90625 3.34375 -1.90625 L 1.890625 -1.90625 L 1.890625 0 L 0.828125 0 Z M 1.890625 -5.34375 L 1.890625 -2.859375 L 3.296875 -2.859375 C 4.304688 -2.859375 4.8125 -3.28125 4.8125 -4.125 C 4.8125 -4.9375 4.304688 -5.34375 3.296875 -5.34375 Z M 1.890625 -5.34375 "/></g></g></g><g fill="#26973c" fill-opacity="1"><g transform="translate(296.827019, 224.903702)"><g><path d="M 0.828125 -6.296875 L 3.34375 -6.296875 C 4.132812 -6.296875 4.742188 -6.109375 5.171875 -5.734375 C 5.609375 -5.359375 5.828125 -4.832031 5.828125 -4.15625 C 5.828125 -3.4375 5.609375 -2.878906 5.171875 -2.484375 C 4.742188 -2.097656 4.132812 -1.90625 3.34375 -1.90625 L 1.890625 -1.90625 L 1.890625 0 L 0.828125 0 Z M 1.890625 -5.34375 L 1.890625 -2.859375 L 3.296875 -2.859375 C 4.304688 -2.859375 4.8125 -3.28125 4.8125 -4.125 C 4.8125 -4.9375 4.304688 -5.34375 3.296875 -5.34375 Z M 1.890625 -5.34375 "/></g></g></g></svg>